<svg width="10" height="11" viewBox="0 0 10 11" fill="none" xmlns="http://www.w3.org/2000/svg">
<path d="M4.99233 6.54817L1.74608 9.79417C1.60124 9.93917 1.42566 10.01 1.21933 10.0067C1.01283 10.0035 0.837161 9.9295 0.692327 9.78467C0.547494 9.63983 0.475077 9.46258 0.475077 9.25292C0.475077 9.04325 0.547494 8.866 0.692327 8.72117L3.92883 5.48467L0.682827 2.26342C0.537827 2.11858 0.466994 1.94133 0.470327 1.73167C0.473494 1.52217 0.547494 1.345 0.692327 1.20017C0.837161 1.05517 1.01441 0.982666 1.22408 0.982666C1.43374 0.982666 1.61099 1.05517 1.75583 1.20017L4.99233 4.44617L8.21358 1.20017C8.35841 1.05517 8.53399 0.982666 8.74033 0.982666C8.94683 0.982666 9.12249 1.05517 9.26733 1.20017C9.42249 1.35517 9.50008 1.53492 9.50008 1.73942C9.50008 1.94392 9.42249 2.11858 9.26733 2.26342L6.03083 5.48467L9.27683 8.73092C9.42183 8.87575 9.49433 9.05133 9.49433 9.25767C9.49433 9.46417 9.42183 9.63983 9.27683 9.78467C9.12183 9.93983 8.94208 10.0174 8.73758 10.0174C8.53308 10.0174 8.35841 9.93983 8.21358 9.78467L4.99233 6.54817Z" fill="white"/>
</svg>
